<svg xmlns="http://www.w3.org/2000/svg" viewBox="0 0 92.03 32.69"><defs><style>.cls-1{fill:#fff;}</style></defs><title>Fichier 4</title><g id="Calque_2" data-name="Calque 2"><g id="Calque_1-2" data-name="Calque 1"><path class="cls-1" d="M0,32.69H32.72V0H0ZM1.83,1.36H31.34V4.59q0,13.25,0,26.49c0,.21-.07.25-.26.25H1.39c0-.13,0-.25,0-.38V1.81C1.37,1.36,1.37,1.36,1.83,1.36Z"/><path class="cls-1" d="M48.79,21c0-.06-.09-.15-.15-.15-.51,0-1,0-1.53,0-.14,0-.17.06-.17.19s0,.35,0,.53h-.06a1.78,1.78,0,0,0-1.09-.79,2.63,2.63,0,0,0-3.11,1.38A3.71,3.71,0,0,0,42.51,25a2.59,2.59,0,0,0,.87,1.29,2.63,2.63,0,0,0,3.13.08c.15-.12.28-.26.44-.4a4,4,0,0,1,0,.49c0,.17.05.24.23.23.44,0,.88,0,1.32,0,.24,0,.31-.07.31-.31,0-1.67,0-3.35,0-5A2.38,2.38,0,0,0,48.79,21ZM46.1,25.28a1.4,1.4,0,0,1-1.86-1.17,1.69,1.69,0,0,1,.41-1.47,1.37,1.37,0,0,1,1.42-.31A1.26,1.26,0,0,1,47,23.47c0,.12,0,.24,0,.36A1.47,1.47,0,0,1,46.1,25.28Z"/><path class="cls-1" d="M69.72,20.86H68.21c-.12,0-.17,0-.17.16s0,.37,0,.61a4.78,4.78,0,0,0-.42-.45,2.57,2.57,0,0,0-3.55.53,3.56,3.56,0,0,0-.31,3.68A2.59,2.59,0,0,0,67,26.73,2.29,2.29,0,0,0,68,26a2.65,2.65,0,0,1,0,.56c0,.12,0,.17.17.17h1.68V21.1C69.89,21,69.91,20.86,69.72,20.86Zm-2,4a1.38,1.38,0,0,1-2.36-.53c-.05-.18-.07-.37-.11-.55a1.91,1.91,0,0,1,.39-1.1A1.4,1.4,0,0,1,68,23.1,1.8,1.8,0,0,1,67.76,24.89Z"/><path class="cls-1" d="M92,23.4a2.59,2.59,0,0,0-1.87-2.51,3.53,3.53,0,0,0-3.14.36,3.32,3.32,0,0,0-1,3.95,2.58,2.58,0,0,0,1.84,1.57,3.6,3.6,0,0,0,3.4-.65A1.85,1.85,0,0,0,91.94,25H90.23a.26.26,0,0,0-.16.1.84.84,0,0,1-.64.39,3.7,3.7,0,0,1-.94,0,1.06,1.06,0,0,1-.81-1.12H92C92,24,92,23.69,92,23.4Zm-4.36-.27A1.15,1.15,0,0,1,88.75,22c1-.07,1.44.47,1.43,1.18Z"/><path class="cls-1" d="M84.49,21.87a1.51,1.51,0,0,0-.84-.94,2.43,2.43,0,0,0-3,.72c0-.21,0-.39,0-.56s0-.23-.21-.22c-.47,0-.94,0-1.42,0-.2,0-.24.07-.24.26v5.44c0,.12,0,.17.15.17h1.7c0-.13,0-.24,0-.34V23.74a2.81,2.81,0,0,1,.06-.65.92.92,0,0,1,.71-.77,1,1,0,0,1,1.14.29,1.63,1.63,0,0,1,.24,1c0,.59,0,1.18,0,1.77v1.33h1.85a.89.89,0,0,0,0-.15c0-1.22,0-2.44,0-3.66A4.06,4.06,0,0,0,84.49,21.87Z"/><path class="cls-1" d="M76.87,21.43A2.36,2.36,0,0,0,74.05,21a5.05,5.05,0,0,0-.78.62,5.14,5.14,0,0,0,0-.55.2.2,0,0,0-.13-.15c-.56,0-1.12,0-1.7,0v5.86h1.63c.16,0,.22,0,.21-.21,0-.8,0-1.6,0-2.39a5.49,5.49,0,0,1,0-.81,1.05,1.05,0,0,1,1.33-1,.79.79,0,0,1,.68.54,2.24,2.24,0,0,1,.11.67c0,1,0,2,0,2.94a2.53,2.53,0,0,1,0,.28h1.86a.45.45,0,0,0,0-.08c0-1.28,0-2.56,0-3.83A2.28,2.28,0,0,0,76.87,21.43Z"/><path class="cls-1" d="M54.26,23.85a3.15,3.15,0,0,1-.1.81,1,1,0,0,1-1,.66.83.83,0,0,1-.88-.64,2.1,2.1,0,0,1-.07-.56c0-1,0-2,0-3,0-.1,0-.24-.14-.23H50.29a1,1,0,0,0,0,.12c0,1.21,0,2.43,0,3.64a2.35,2.35,0,0,0,.52,1.58,2.32,2.32,0,0,0,2.45.55,2.36,2.36,0,0,0,1-.76c0,.2,0,.39,0,.58s.08.12.13.15a.74.74,0,0,0,.21,0H56.1V20.88H54.27C54.27,21.88,54.27,22.86,54.26,23.85Z"/><path class="cls-1" d="M41.08,25H38.37a.51.51,0,0,1,0-.1q0-3.19,0-6.39c0-.23-.08-.29-.3-.28H36.72c-.33,0-.33,0-.33.33q0,4,0,7.94c0,.2,0,.26.25.26h4.64l.26,0V25.44C41.53,25,41.53,25,41.08,25Z"/><path class="cls-1" d="M61.35,23.34c-.52-.17-1.05-.29-1.58-.45a1.17,1.17,0,0,1-.36-.16.44.44,0,0,1,0-.71.87.87,0,0,1,1.27.34c0,.06.1.15.15.16.57,0,1.14,0,1.73,0a1.68,1.68,0,0,0-.87-1.45,3.23,3.23,0,0,0-1.42-.37,3.29,3.29,0,0,0-2.18.52,1.7,1.7,0,0,0-.39,2.27,2,2,0,0,0,1.16.75l1.55.4a.39.39,0,0,1,.33.35.5.5,0,0,1-.2.54,1.06,1.06,0,0,1-.95,0,.6.6,0,0,1-.45-.47A.22.22,0,0,0,59,25H57.26a1.65,1.65,0,0,0,.68,1.32,3.36,3.36,0,0,0,2.29.62A2.65,2.65,0,0,0,62,26.29a1.78,1.78,0,0,0,.58-1.73A1.62,1.62,0,0,0,61.35,23.34Z"/><path class="cls-1" d="M27.6,19a2.83,2.83,0,0,0-2.06-.79H21.89a1.06,1.06,0,0,0,0,.15q0,4.08,0,8.14c0,.21.1.22.26.22,1.2,0,2.41,0,3.62,0a2.7,2.7,0,0,0,1.69-.57,2.16,2.16,0,0,0,.79-1.9,1.78,1.78,0,0,0-1.1-1.69c-.16-.08-.34-.13-.49-.19a5.17,5.17,0,0,0,.71-.34A2.11,2.11,0,0,0,27.6,19Zm-3.76.81c0-.06.09-.17.14-.17a12.36,12.36,0,0,1,1.36,0,1,1,0,0,1,.08,1.94,15.75,15.75,0,0,1-1.58.1C23.84,21,23.83,20.43,23.84,19.82Zm1.45,5.39c-.47,0-.93,0-1.45,0V24c0-.25,0-.5,0-.75,0-.06.1-.17.15-.17.45,0,.9,0,1.34,0a1.06,1.06,0,0,1-.05,2.11Z"/><path class="cls-1" d="M4.59,26.45a.4.4,0,0,0,0,.16.26.26,0,0,0,.11.12H6.54V23.36h3v3.16c0,.11,0,.21.15.21h1.8c0-.13,0-.24,0-.35V18.53c0-.06,0-.13,0-.18s-.08-.12-.12-.12H9.51v3.25c0,.11,0,.2-.15.2H6.56V18.5c0-.21,0-.3-.27-.29-.47,0-.94,0-1.41,0-.24,0-.29.06-.29.29C4.6,21.15,4.59,23.8,4.59,26.45Z"/><path class="cls-1" d="M18.4,18.22c-.22,0-.27.05-.27.26,0,1.75,0,3.5,0,5.25a1.44,1.44,0,0,1-2,1.44,1.35,1.35,0,0,1-1-1.35V18.55a.6.6,0,0,0,0-.19c0-.06-.09-.14-.14-.14H13.26a1.62,1.62,0,0,0,0,.18c0,1.86,0,3.72,0,5.58a2.7,2.7,0,0,0,1.61,2.61,4.48,4.48,0,0,0,3.06.21,2.79,2.79,0,0,0,1.5-.91,3.06,3.06,0,0,0,.7-2.1c0-1.77,0-3.55,0-5.32v-.24C19.51,18.22,19,18.23,18.4,18.22Z"/><path class="cls-1" d="M8,14.52a.22.22,0,0,1,.09.13c.19.63.39,1.27.58,1.91a.24.24,0,0,0,.26.21h.65l.64-2.23h.05v2.21h1.07V13H10.05a.22.22,0,0,0-.16.12c-.09.25-.17.5-.25.76-.17.51-.34,1-.51,1.55,0,0-.06-.06-.06-.08l-.71-2.18c0-.06-.09-.17-.14-.17H6.89v3.77H8Z"/><path class="cls-1" d="M23.92,16.35a1.36,1.36,0,0,0,.45-1H23.21a.8.8,0,0,1-.88.57.79.79,0,0,1-.84-.59,1.6,1.6,0,0,1,0-.69.8.8,0,0,1,.64-.72.9.9,0,0,1,1.07.42s.08.12.12.12h1.1a1.44,1.44,0,0,0-.52-1.08,2.36,2.36,0,0,0-2.05-.43,2,2,0,0,0-1.2,3.15A2.38,2.38,0,0,0,23.92,16.35Z"/><path class="cls-1" d="M13.6,16c0-.16,0-.22.19-.21a5,5,0,0,0,.55,0,1.37,1.37,0,0,0,1.38-1.39A1.4,1.4,0,0,0,14.31,13H12.78l-.29,0v3.77H13.6C13.6,16.48,13.61,16.24,13.6,16Zm.17-2.16c.53,0,.77.11.81.48a.53.53,0,0,1-.42.59h0c-.53.06-.53.06-.54-.52a.32.32,0,0,1,0-.14C13.65,14.11,13.46,13.86,13.77,13.84Z"/><path class="cls-1" d="M17.19,16.58a.27.27,0,0,1,.35-.26,4.17,4.17,0,0,0,.5,0c.46,0,.46,0,.59.43h1.15L18.5,13h-1a.26.26,0,0,0-.29.21c-.32,1-.65,1.92-1,2.87-.08.23-.15.46-.23.71h1.17A1.22,1.22,0,0,0,17.19,16.58Zm.66-2.47h0l.38,1.38h-.79Z"/><path class="cls-1" d="M25.23,13.94H26v2.81h1.12V13.93h1V13H25c0,.27,0,.51,0,.76S25.08,14,25.23,13.94Z"/><path class="cls-1" d="M5.72,13H4.61v3.76H5.72Z"/></g></g></svg>