<svg xmlns="http://www.w3.org/2000/svg" viewBox="0 0 60.38 16.38"><defs><style>.cls-1{fill:#fff;}</style></defs><title>Fichier 1</title><g id="Calque_2" data-name="Calque 2"><g id="Calque_1-2" data-name="Calque 1"><rect class="cls-1" y="0.06" width="3.71" height="16.04"/><path class="cls-1" d="M18.42,8.83V16.1H14.83V9.8A3.27,3.27,0,0,0,14.5,8a2,2,0,0,0-1.86-.89A2.82,2.82,0,0,0,9.72,9.8v6.3H6.11V4.58h3.5V6.19A5,5,0,0,1,13.73,4.3c2.68,0,4.69,1.35,4.69,4.53"/><path class="cls-1" d="M20.09,10.36c0-3.77,2.84-6.06,6.62-6.06S32.44,6.24,33,8.52l-3.52.7a2.67,2.67,0,0,0-2.77-2.31c-1.73,0-3,1.29-3,3.43s1.32,3.43,3.05,3.43a2.66,2.66,0,0,0,2.8-2.31l3.54.7c-.79,2.49-2.84,4.22-6.39,4.22-3.77,0-6.59-2.31-6.59-6"/><path class="cls-1" d="M34,14.21a2.13,2.13,0,1,1,4.26,0,2.13,2.13,0,1,1-4.26,0"/><polygon class="cls-1" points="57.06 16.1 49.09 7.64 57.06 0.06 52.3 0.06 44.51 7.52 44.51 0.06 40.81 0.06 40.81 16.1 44.51 16.1 44.51 7.78 52.3 16.1 57.06 16.1"/><path class="cls-1" d="M60.14,1a.74.74,0,1,0-1.47,0,.74.74,0,1,0,1.47,0m.24,0a1,1,0,0,1-2,0,1,1,0,0,1,2,0"/><path class="cls-1" d="M59.55.76c0,.07,0,.11-.13.11h-.17V.64h.17c.09,0,.13,0,.13.12m0,.3a.31.31,0,0,0,.2-.31c0-.2-.13-.32-.36-.32H59V1.49h.24V1.08h.07l.26.41h.27Z"/><path class="cls-1" d="M37.86,1.47h.3V.06h-.5l-.37,1.13v0L36.92.06H35.2V.31h.49V1.47H36V.31h.42V1.47h.3V.77c0-.09,0-.17,0-.26s0-.11,0-.17h0l.38,1.14h.38L37.86.33h0v0c0,.16,0,.27,0,.41Z"/></g></g></svg>