<svg xmlns="http://www.w3.org/2000/svg" viewBox="0 0 46.05 38.09"><defs><style>.cls-1{fill:#fff;}</style></defs><title>Fichier 2</title><g id="Calque_2" data-name="Calque 2"><g id="Calque_1-2" data-name="Calque 1"><path class="cls-1" d="M22.07,0l.6.05a18,18,0,0,1,3.49.56,18.79,18.79,0,0,1,3.31,1.22,19.48,19.48,0,0,1,7.59,6.41c.17.23.32.47.49.71l.17-.1a42.08,42.08,0,0,0,4.72-3.36,18.72,18.72,0,0,0,2.23-2.13c.36-.41.68-.87,1-1.3l.09-.1.28.15c-.12.3-.22.59-.34.87a19.54,19.54,0,0,1-3.13,5,33.61,33.61,0,0,1-3.5,3.56.17.17,0,0,0,0,.22,17.79,17.79,0,0,1,1.08,3.41,14.89,14.89,0,0,1,.36,2.56c0,.71.05,1.41,0,2.12a16.7,16.7,0,0,1-.33,2.82,18.8,18.8,0,0,1-2.92,7,19.34,19.34,0,0,1-5.92,5.65,19,19,0,0,1-5.21,2.19,18.4,18.4,0,0,1-2.86.5,18.82,18.82,0,0,1-3.44,0,18.67,18.67,0,0,1-8.17-2.67,18.61,18.61,0,0,1-2.74-2l-.12-.1a44.91,44.91,0,0,0-3.38,3.12c0-.2,0-.36,0-.52s0-.35,0-.52a.27.27,0,0,1,.08-.16l2.58-2.35.09-.09A19.2,19.2,0,0,1,3,23.81L2.6,24,1,24.92a.22.22,0,0,1-.21,0L.11,24.7l-.1,0v0l2.83-1.56c-.05-.25-.11-.53-.15-.81-.08-.65-.19-1.3-.23-1.95s-.05-1.48,0-2.22a16.82,16.82,0,0,1,.32-2.65A19,19,0,0,1,9.08,4.55,18.89,18.89,0,0,1,20.72,0l.13,0Zm3.64,29,0,0,.11,0c.47.16.93.33,1.4.47a5,5,0,0,0,2.13.18,2.26,2.26,0,0,0,1.61-1,3.17,3.17,0,0,0,.48-1.37,6.58,6.58,0,0,0-.06-2,14.78,14.78,0,0,0-.7-2.69.13.13,0,0,0-.16-.1H30c.15-.12.27-.22.4-.31a.12.12,0,0,0,.05-.18c-.33-.71-.64-1.42-1-2.12-.15-.31-.33-.61-.5-.92l-.15.1c.12.16.24.29.34.44A1.53,1.53,0,0,1,29,21.66a3.76,3.76,0,0,1-2.6,1.06,5,5,0,0,1-1.92-.33.2.2,0,0,0-.22,0l-.67.52-.09.05v-.46L20,24.8a2.9,2.9,0,0,0,.22.19c.46.36.93.71,1.38,1.07a2.92,2.92,0,0,1,.47.46.42.42,0,0,1-.25.68.56.56,0,0,1-.45-.07,4.7,4.7,0,0,1-.54-.37,8.82,8.82,0,0,1-1.26-1.47l-.1-.12c-3.56,2.42-7,5-10.33,7.73a18.65,18.65,0,0,0,3.52,2.48A18.14,18.14,0,0,0,16.78,37a18.93,18.93,0,0,0,3.27.55,18.52,18.52,0,0,0,3.33,0A18.25,18.25,0,0,0,26,37a18.59,18.59,0,0,0,5.42-2.37,18.86,18.86,0,0,0,4.48-4A19.26,19.26,0,0,0,38.26,27a17.66,17.66,0,0,0,1.22-3.4A18.59,18.59,0,0,0,40,20.39a17.91,17.91,0,0,0-.16-4.14,17.73,17.73,0,0,0-.93-3.52c-.09-.25-.2-.49-.3-.75-1.47,1.27-3,2.45-4.55,3.59.39,0,.79,0,1.18,0a.13.13,0,0,1,.14.1l.39,1.05,1.8,4.88a1.43,1.43,0,0,0,.67.93H34.12l.34-.36a.49.49,0,0,0,.17-.45c-.06-.26-.14-.51-.21-.76a.13.13,0,0,0-.09,0H32.17a.13.13,0,0,0-.09.05,1.7,1.7,0,0,0-.15.8,1,1,0,0,0,.37.75H31c0,.07,0,.11,0,.16a13,13,0,0,1,.73,3.9,4.55,4.55,0,0,1-.3,1.86,2.17,2.17,0,0,1-1.33,1.27,3.91,3.91,0,0,1-2,.08,11.86,11.86,0,0,1-2.35-.73A.54.54,0,0,1,25.71,29ZM14.65,18.24l-.07-.14c-.3-.56-.63-1.12-.91-1.69a15.07,15.07,0,0,1-1.62-5.64,5.31,5.31,0,0,1,.36-2.49,2.42,2.42,0,0,1,1.78-1.53,4.11,4.11,0,0,1,1.91.06A11,11,0,0,1,18.79,7.9a20.33,20.33,0,0,1,3.38,2.37,30.51,30.51,0,0,1,3.84,4,.17.17,0,0,0,.23.06c1.67-.64,3.33-1.32,5-2.06A58.58,58.58,0,0,0,37,9.28l.12-.07A18.53,18.53,0,0,0,3.29,22.85l.1-.06,2.89-1.44c.09-.05.12-.09.11-.19V16.9c0-.84.1-.57-.45-1.27l-.16-.2H8.45c.34,0,.35,0,.52.29l2,3.45.15.25c.23-.05.23-.05.23-.28,0-.81,0-1.62,0-2.43a1.27,1.27,0,0,0-.35-.93l-.19-.24-.05-.07h2.11c-.14.15-.24.27-.36.39a.63.63,0,0,0-.2.49c0,.84,0,1.68,0,2.53V19ZM3.45,23.6a18.71,18.71,0,0,0,5.14,8.78,67.48,67.48,0,0,1,10.26-8.09l-2.58-3.42a1.32,1.32,0,0,0,.2,1.56H14.24c.22-.19.44-.36.64-.54a.94.94,0,0,0,.23-.33c.13-.39.23-.79.34-1.18,0-.13.07-.25.12-.4l-3.23.81a3.05,3.05,0,0,1,0,.43,1,1,0,0,0,.28.78,4.32,4.32,0,0,1,.36.46H10.1a.18.18,0,0,1-.13-.08c-.15-.24-.29-.48-.43-.73a.14.14,0,0,0-.18-.07L7.86,22l-.15,0,.27.3H7.06a1.43,1.43,0,0,0-.61.1c-.4.14-.81.27-1.2.42Zm22.33-9.12-.16-.19c-.43-.48-.85-1-1.3-1.44a28.16,28.16,0,0,0-4.17-3.69,12.41,12.41,0,0,0-3.54-1.83,4.5,4.5,0,0,0-2.06-.19,2.25,2.25,0,0,0-1.59,1,3.64,3.64,0,0,0-.53,2,9.67,9.67,0,0,0,.44,3A24.75,24.75,0,0,0,15,18a.11.11,0,0,0,.16.06l1-.33a.21.21,0,0,0,.1-.11c.11-.42.22-.84.32-1.26a.38.38,0,0,0,0-.24c-.13-.19-.29-.37-.43-.55L16,15.48h3.12c.14,0,.31,0,.41,0s.12.24.17.37.16.42.24.65Zm11.56-5a79.13,79.13,0,0,1-11,5.12l.75,1a.15.15,0,0,0,.09,0l.91.16a.55.55,0,0,0,.49-.15,2.31,2.31,0,0,1,.23-.18v.4A44.28,44.28,0,0,0,33,14a33,33,0,0,0,3.94-2.28l.2.28-4.42,3.56h.65a.57.57,0,0,0,.22-.07c1.5-1.07,3-2.19,4.38-3.38l.55-.48Zm1.52,1.85,0,0a36,36,0,0,0,3.41-3.47,20.11,20.11,0,0,0,2.76-4.19l.23-.49a32.84,32.84,0,0,1-7.56,6.08ZM20.7,18.69a.13.13,0,0,0,0,.06l1.15,3.06a3.65,3.65,0,0,0,.18.34l1.36-.88a.18.18,0,0,0,.06-.13c0-.14,0-.29,0-.45l.27.22a.14.14,0,0,0,.21,0L25.37,20l.09-.07-.63-.24a2.18,2.18,0,0,1-1.23-1.1,4.8,4.8,0,0,1-.23-.67ZM20,16.82l.57,1.56.09,0c.85-.23,1.7-.47,2.55-.69a.21.21,0,0,0,.17-.22A2,2,0,0,1,24.25,16,2.94,2.94,0,0,1,26,15.51h.62l-.06-.08-.5-.63a.16.16,0,0,0-.19-.05L21.2,16.42Zm10.77,5.06a.61.61,0,0,0,.19-.36l1.29-4.58s0-.08,0-.14l-3,2A26.19,26.19,0,0,1,30.78,21.88Zm1-6.31H32a.48.48,0,0,0,.21-.07l2.69-2.08.07,0,0,0-.1.05-.79.43a45.21,45.21,0,0,1-5,2.24c-.3.11-.3.11-.29.44v.68l-.87-.52,0,0L28.72,18l3.2-2.21Zm-12.73,9c-1.69,1.12-3.34,2.27-4.94,3.5A56.09,56.09,0,0,0,8.83,32.6l.09.09c3.33-2.79,6.81-5.35,10.39-7.79Zm-2.24-3.7,0,0L19.29,24l2.26-1.51v0H18.29l.34-.35a.61.61,0,0,0,.17-.63c-.06-.17-.12-.35-.17-.52s-.06-.13-.16-.12H16.82Zm-2-2.31c-.82.27-1.63.54-2.43.82a.12.12,0,0,0-.06.1v1l3.18-.8Zm13.65-.42c-.32-.47-.63-.92-.93-1.38a.13.13,0,0,0-.16,0l-1.07.37-.71.23a.13.13,0,0,1,0,0,1.4,1.4,0,0,0,.58.38,10.27,10.27,0,0,1,1.68.7.1.1,0,0,0,.09,0Zm4.65-.67L32.31,20h1.83Zm-25.81.46v3l1.43-.58Zm15.08,4.55v0c-.22-.06-.37.09-.53.2l-2.25,1.5-.12.08.3.33.36-.24,3.22-2.1s.1,0,.1-.09,0-.35,0-.55l-1.18.77ZM32.15,16l-3.27,2.26.21.34,3.3-2.23ZM25,21.56v0l.46.08a2.59,2.59,0,0,0,1.45-.23.47.47,0,0,0,.1-.75l-.22-.16a.14.14,0,0,0-.19,0l-1.17.75Zm-16.11-1-.08,0-1.25.51c-.29.12-.31.17-.2.48l.06.12c0,.06.06.07.13.05l.7-.21,1-.3Zm8.53-2.92c-.25.05-.25.05-.33.28s-.09.29-.13.43c-.1.33-.2.65-.31,1L18,19.06Zm8.92,2.64a4.52,4.52,0,0,0-.47-.18.1.1,0,0,0-.09,0l-1.68,1c.15.08.28.14.41.22a.15.15,0,0,0,.17,0l1.57-1Zm-20,1.39,0,0h0L3.42,23.14c-.08,0-.06.09,0,.15l.09,0,2-.76a1.82,1.82,0,0,0,.61-.37A4.47,4.47,0,0,0,6.37,21.71Zm10.14-1.78h1.81l-.22-.57-1.38.34C16.58,19.73,16.51,19.79,16.51,19.93Zm-1.33-1.52.57.94.36-1.25Zm11.88-1.95v0a4.61,4.61,0,0,0-.52,0,1.36,1.36,0,0,0-.83.26.45.45,0,0,0-.19.31Zm-21.3,19L8.53,33l-.07-.07L5.85,35.3A.77.77,0,0,0,5.76,35.5ZM2.93,23.44l0,0A20.39,20.39,0,0,0,.76,24.6a.37.37,0,0,0,.15,0c.49-.27,1-.55,1.48-.81.15-.09.32-.15.47-.23A.31.31,0,0,0,2.93,23.44Zm25.66-4.55.25-.17-.21-.35-.39.25Z"/><path class="cls-1" d="M14.66,33.4a.53.53,0,0,0-.61-.61c.41,0,.61-.2.61-.61l0,.14a.78.78,0,0,0,0,.16.46.46,0,0,0,.26.25l.16,0a.8.8,0,0,1,.15,0l-.29,0-.14.08C14.67,33,14.7,33.21,14.66,33.4Z"/><path class="cls-1" d="M34.15,29.63c-.08-.15,0-.32-.16-.47s-.32-.08-.48-.15a.52.52,0,0,1,.17,0c.19,0,.28-.12.39-.21s0-.12,0-.18,0-.12,0-.2c.08.15,0,.32.16.45s.29.09.46.15c-.17.06-.33,0-.46.17S34.22,29.48,34.15,29.63Z"/><path class="cls-1" d="M35.17,24.92c.14-.08.31,0,.47-.15s.08-.32.15-.46c.07.14,0,.3.15.45s.3.09.46.14c-.16.06-.33,0-.47.18s0,.33-.14.47c0,0,0-.1,0-.15s-.11-.3-.21-.42-.08,0-.11,0Z"/><path class="cls-1" d="M31,26.68a.2.2,0,0,1-.18-.2.2.2,0,0,1,.19-.18.19.19,0,0,1,.18.19A.18.18,0,0,1,31,26.68Z"/><path class="cls-1" d="M33.78,24.89a.18.18,0,0,1,.18.19.18.18,0,0,1-.18.18.19.19,0,0,1-.19-.18A.2.2,0,0,1,33.78,24.89Z"/><path class="cls-1" d="M36.24,26.17a.19.19,0,0,1,.2-.17.18.18,0,0,1,.17.2.19.19,0,1,1-.37,0Z"/><path class="cls-1" d="M31.06,25a.2.2,0,0,1,.19.19.19.19,0,0,1-.17.19.2.2,0,0,1-.2-.18A.21.21,0,0,1,31.06,25Z"/><path class="cls-1" d="M16,29a.18.18,0,0,1,.18.19.19.19,0,0,1-.18.18.2.2,0,0,1-.19-.19A.17.17,0,0,1,16,29Z"/><path class="cls-1" d="M16.11,31a.15.15,0,0,1,.15-.15.16.16,0,0,1,.16.15.16.16,0,0,1-.16.15A.15.15,0,0,1,16.11,31Z"/><path class="cls-1" d="M24.27,29.26a.14.14,0,0,1-.14.15.16.16,0,0,1-.16-.15.15.15,0,0,1,.15-.15A.15.15,0,0,1,24.27,29.26Z"/><path class="cls-1" d="M29.59,28.47a.14.14,0,0,1-.14-.15.13.13,0,0,1,.14-.15.15.15,0,0,1,.16.16A.15.15,0,0,1,29.59,28.47Z"/><path class="cls-1" d="M33.77,28.3c-.09,0-.15-.05-.15-.14a.15.15,0,0,1,.14-.16.15.15,0,0,1,.16.16A.15.15,0,0,1,33.77,28.3Z"/><path class="cls-1" d="M35.46,26.7a.14.14,0,0,1-.14-.15.15.15,0,0,1,.15-.15.14.14,0,0,1,.15.16C35.61,26.65,35.55,26.69,35.46,26.7Z"/><path class="cls-1" d="M30.3,32.57a.15.15,0,0,1-.15-.15.16.16,0,0,1,.16-.15.14.14,0,0,1,.14.15A.15.15,0,0,1,30.3,32.57Z"/><path class="cls-1" d="M20.47,30.7c-.1,0-.15-.05-.15-.14s.05-.14.14-.15a.16.16,0,0,1,.16.15A.14.14,0,0,1,20.47,30.7Z"/><path class="cls-1" d="M14.14,30.73a.15.15,0,0,1-.15-.15.14.14,0,0,1,.15-.15.15.15,0,1,1,0,.3Z"/><path class="cls-1" d="M35.3,29a.13.13,0,0,1-.14.15A.14.14,0,0,1,35,29c0-.09.05-.14.15-.14A.13.13,0,0,1,35.3,29Z"/><path class="cls-1" d="M33.59,24.15a.15.15,0,1,1-.14-.15A.15.15,0,0,1,33.59,24.15Z"/><path class="cls-1" d="M29.45,26.2c0-.1.05-.15.14-.15a.14.14,0,0,1,.16.14.16.16,0,0,1-.16.16A.14.14,0,0,1,29.45,26.2Z"/><path class="cls-1" d="M26,3.83c-.18.07-.35,0-.5.18s-.05.34-.14.49a.62.62,0,0,1,0-.19c0-.19-.12-.27-.21-.39s-.07,0-.1,0l-.29-.05c.44,0,.63-.2.63-.61a.2.2,0,0,0,0,.07s0,.05,0,.07c0,.18.1.28.21.4s.06,0,.1,0Z"/><path class="cls-1" d="M20.43,3.83a.18.18,0,0,1,.19.18.2.2,0,0,1-.19.19A.19.19,0,0,1,20.25,4,.17.17,0,0,1,20.43,3.83Z"/><path class="cls-1" d="M25.55,8.07a.2.2,0,0,1-.2.18.2.2,0,0,1-.18-.19.18.18,0,0,1,.19-.18A.2.2,0,0,1,25.55,8.07Z"/><path class="cls-1" d="M22.79,4.27a.19.19,0,1,1-.37,0,.18.18,0,0,1,.18-.19A.2.2,0,0,1,22.79,4.27Z"/><path class="cls-1" d="M21,5.73a.15.15,0,0,1-.15-.15.15.15,0,1,1,.3,0A.15.15,0,0,1,21,5.73Z"/><path class="cls-1" d="M19,6.14a.14.14,0,0,1-.14.15.14.14,0,0,1-.16-.15A.15.15,0,0,1,18.86,6,.15.15,0,0,1,19,6.14Z"/><path class="cls-1" d="M22.76,6.45a.14.14,0,0,1-.14.15.15.15,0,0,1-.16-.15q0-.15.15-.15C22.71,6.3,22.75,6.36,22.76,6.45Z"/><path class="cls-1" d="M18.33,6.73a.15.15,0,0,1-.15.15A.14.14,0,0,1,18,6.74a.15.15,0,0,1,.15-.16A.15.15,0,0,1,18.33,6.73Z"/><path class="cls-1" d="M21.57,2.1A.14.14,0,0,1,21.43,2a.14.14,0,0,1,.14-.15.16.16,0,0,1,.16.15A.16.16,0,0,1,21.57,2.1Z"/><path class="cls-1" d="M18,5.68c-.09,0-.15,0-.15-.14A.14.14,0,0,1,18,5.38a.16.16,0,0,1,.16.15A.15.15,0,0,1,18,5.68Z"/><path class="cls-1" d="M18.56,5.85a.15.15,0,0,1-.15.14.14.14,0,0,1-.14-.16.13.13,0,0,1,.15-.14A.15.15,0,0,1,18.56,5.85Z"/><path class="cls-1" d="M14.81,26.35a.2.2,0,0,1,.19.19.19.19,0,0,1-.19.18.18.18,0,0,1-.18-.18A.18.18,0,0,1,14.81,26.35Z"/><path class="cls-1" d="M10.35,29.29a.18.18,0,0,1-.18-.19.19.19,0,0,1,.18-.18.19.19,0,0,1,.19.18A.2.2,0,0,1,10.35,29.29Z"/><path class="cls-1" d="M9.86,27.64a.18.18,0,0,1-.19-.19.19.19,0,0,1,.18-.18.2.2,0,0,1,.19.19A.19.19,0,0,1,9.86,27.64Z"/><path class="cls-1" d="M9.76,28.51a.15.15,0,1,1-.3,0,.13.13,0,0,1,.16-.13C9.71,28.36,9.75,28.42,9.76,28.51Z"/><path class="cls-1" d="M12.81,28.52a.15.15,0,0,1-.14-.15.13.13,0,0,1,.14-.15.14.14,0,0,1,.16.15A.16.16,0,0,1,12.81,28.52Z"/><path class="cls-1" d="M7.94,27.63a.13.13,0,0,1-.14.15.15.15,0,0,1-.16-.14.16.16,0,0,1,.15-.16A.15.15,0,0,1,7.94,27.63Z"/><path class="cls-1" d="M14.74,23.12a.13.13,0,0,1-.13-.15.13.13,0,0,1,.14-.15.14.14,0,0,1,.15.16A.15.15,0,0,1,14.74,23.12Z"/><path class="cls-1" d="M16.56,10.16c-.07-.16,0-.32-.17-.46s-.29-.09-.45-.15c.15-.07.32,0,.46-.17s.07-.31.15-.46a.36.36,0,0,1,0,.14c0,.19.1.3.2.41s.08,0,.12,0l.29,0C16.76,9.54,16.53,9.72,16.56,10.16Z"/><path class="cls-1" d="M14.77,9.23a.15.15,0,0,1-.15.15.14.14,0,0,1-.15-.14.14.14,0,0,1,.15-.16A.15.15,0,0,1,14.77,9.23Z"/><path class="cls-1" d="M15.42,10.05a.13.13,0,0,1-.15.13.14.14,0,0,1-.14-.16.14.14,0,0,1,.15-.14A.15.15,0,0,1,15.42,10.05Z"/></g></g></svg>