<svg xmlns="http://www.w3.org/2000/svg" viewBox="0 0 40.04 37.71"><defs><style>.cls-1{fill:#fff;}</style></defs><title>Fichier 3</title><g id="Calque_2" data-name="Calque 2"><g id="Calque_1-2" data-name="Calque 1"><path class="cls-1" d="M3,11.64a.45.45,0,0,0,.24-.21A18.83,18.83,0,0,1,5.8,7.24a18.48,18.48,0,0,1,3-2.93,18,18,0,0,1,4.3-2.48A18.55,18.55,0,0,1,19.72.47,11.48,11.48,0,0,1,21,.52c.75.06,1.51.11,2.26.24a18.15,18.15,0,0,1,4,1.2,17.68,17.68,0,0,1,2.58,1.37,2.54,2.54,0,0,0,.36,3.2,2.4,2.4,0,0,0,1.45.72,2.57,2.57,0,0,0,2.09-.66c.44.58.89,1.12,1.3,1.69a18.29,18.29,0,0,1,1.78,3.13c.06.15.15.25.32.17a.23.23,0,0,0,.11-.35c-.44-.82-.83-1.67-1.33-2.45s-1.17-1.6-1.77-2.38c-.09-.12-.08-.18,0-.3a2.56,2.56,0,0,0-2.77-3.87,2.68,2.68,0,0,0-1.2.68c-.91-.45-1.77-.93-2.67-1.33a18.42,18.42,0,0,0-7-1.58c-.71,0-1.43.05-2.14.09a14.87,14.87,0,0,0-2.9.47,18.57,18.57,0,0,0-7.75,4A18.37,18.37,0,0,0,5.41,7a19.46,19.46,0,0,0-2.63,4.29.26.26,0,0,0,0,.23C2.81,11.57,2.93,11.66,3,11.64Zm30.35-8.5a2,2,0,0,1,.41,2.66L30.69,3.21A2,2,0,0,1,33.33,3.14Zm-3,.5a18.94,18.94,0,0,1,3,2.56,2,2,0,0,1-3-2.56Z"/><path class="cls-1" d="M8.15,25.13H9.1l.24-1.75h1.58c.07.53.12,1.05.2,1.57,0,.07.09.18.14.18.29,0,.58,0,.87,0-.08-.57-.15-1.12-.22-1.67s-.13-1.07-.2-1.61-.15-1.08-.22-1.63-.13-1.07-.2-1.61-.19-1.31-.27-2-.16-1.3-.24-1.95a.22.22,0,0,0-.17-.14,6.17,6.17,0,0,0-.86,0,.21.21,0,0,0-.17.14c-.07.37-.11.75-.16,1.12l-.21,1.56C9.13,18,9,18.62,9,19.24s-.13,1-.2,1.51l-.27,1.93c-.07.51-.15,1-.22,1.53Zm2-7.94h0l.64,5.27H9.45Z"/><path class="cls-1" d="M25.62,23.37a.29.29,0,0,1,.14.19c.08.52.13,1,.2,1.57h1L25.57,14.57H24.41c-.48,3.53-1,7-1.45,10.57h.83a.25.25,0,0,0,.15-.15c.07-.53.13-1.07.2-1.62C24.64,23.37,25.13,23.36,25.62,23.37Zm-.68-6.18h0l.64,5.27H24.27Z"/><path class="cls-1" d="M40,22a2.42,2.42,0,0,0-.36-1.53c-.29-.36-.63-.7-1-1s-.41-.41-.59-.63a1.2,1.2,0,0,1-.35-.58,21.68,21.68,0,0,1,0-2.28c0-.32.27-.5.61-.52a.57.57,0,0,1,.64.47,4.62,4.62,0,0,1,0,.65v1.59h1c0-.86,0-1.7-.09-2.53a1.21,1.21,0,0,0-.4-.81,1.4,1.4,0,0,0-.84-.33,1.56,1.56,0,0,0-2,1.65c0,.64,0,1.28,0,1.92a2.82,2.82,0,0,0,.09.64,2.32,2.32,0,0,0,.72,1c.37.41.78.79,1.14,1.21a1,1,0,0,1,.32.57c0,.78,0,1.55,0,2.33a.55.55,0,0,1-.58.54c-.35,0-.59-.11-.67-.41a2.36,2.36,0,0,1-.09-.52c0-.45,0-.89,0-1.34v-.76h-.89c0,.93,0,1.83,0,2.73a1.2,1.2,0,0,0,1,1.19,4.08,4.08,0,0,0,.78,0A1.28,1.28,0,0,0,40,23.92,15.66,15.66,0,0,0,40,22Z"/><path class="cls-1" d="M3.21,21a2,2,0,0,0-.63-1l-1.2-1.25A1.14,1.14,0,0,1,1,18c0-.66,0-1.31,0-2a.62.62,0,0,1,.65-.64c.37,0,.62.15.65.54s0,1,.05,1.47c0,.23,0,.46,0,.68h.89c0-.8,0-1.6,0-2.38a1.18,1.18,0,0,0-1-1.23,2.32,2.32,0,0,0-.74-.06A1.42,1.42,0,0,0,0,16c0,.75,0,1.5,0,2.24a1.43,1.43,0,0,0,.37,1c.5.52,1,1,1.49,1.58a1.39,1.39,0,0,1,.44,1.06c0,.61,0,1.23,0,1.84a.61.61,0,0,1-.64.65c-.46,0-.69-.24-.72-.8s0-1.32,0-2v-.25H0c0,.88,0,1.74,0,2.59a1.49,1.49,0,0,0,.39,1,1.92,1.92,0,0,0,1.72.39A1.43,1.43,0,0,0,2.72,25a1.45,1.45,0,0,0,.57-1.22c0-.74,0-1.48,0-2.22A4.85,4.85,0,0,0,3.21,21Z"/><path class="cls-1" d="M16,24.42a2.76,2.76,0,0,0,.14-.75c0-.71,0-1.43,0-2.15v-.24h-.89c0,.8,0,1.59,0,2.38a.57.57,0,0,1-.54.63.62.62,0,0,1-.75-.43,1.24,1.24,0,0,1-.06-.43q0-3.57,0-7.14a2.33,2.33,0,0,1,0-.37.63.63,0,0,1,.74-.51.58.58,0,0,1,.57.65v2.05h.89c0-.65,0-1.27,0-1.89a3.28,3.28,0,0,0-.05-.63,1.26,1.26,0,0,0-1-1.1,3.14,3.14,0,0,0-.92,0,1.24,1.24,0,0,0-1.13.92,2.77,2.77,0,0,0-.14.86c0,2.08,0,4.17,0,6.25,0,.47,0,.95,0,1.42a1.29,1.29,0,0,0,1,1.22,4,4,0,0,0,.91.09A1.15,1.15,0,0,0,16,24.42Z"/><path class="cls-1" d="M36.28,28c-.16-.11-.24,0-.33.11a1.08,1.08,0,0,0-.11.18,15.43,15.43,0,0,1-2.07,2.81,24.84,24.84,0,0,1-2.24,2.11,17.22,17.22,0,0,1-5.44,3,16.88,16.88,0,0,1-5,1,24.46,24.46,0,0,1-2.57,0A21,21,0,0,1,16,36.75a17.18,17.18,0,0,1-5.19-2,15,15,0,0,1-3-2.22,22,22,0,0,1-1.89-2c-.65-.81-1.2-1.7-1.78-2.56q-.17-.23-.36-.12c-.14.08-.14.22-.06.36a19.2,19.2,0,0,0,2.45,3.35,18.8,18.8,0,0,0,3.07,2.7,19.26,19.26,0,0,0,11.13,3.46l1.45-.11a16.73,16.73,0,0,0,3-.51,19.05,19.05,0,0,0,8.46-4.75,18.19,18.19,0,0,0,2.11-2.45c.36-.51.68-1.05,1-1.57A.24.24,0,0,0,36.28,28Z"/><path class="cls-1" d="M33.64,20.09a4.7,4.7,0,0,0,.75,0,1.33,1.33,0,0,0,1.3-.87,3.09,3.09,0,0,0,.18-1c0-.75,0-1.5,0-2.25a1.35,1.35,0,0,0-.72-1.19,1.34,1.34,0,0,0-.6-.2c-.7,0-1.4,0-2.11,0V25.13h1v-.27c0-1.49,0-3,0-4.47C33.35,20.16,33.4,20.07,33.64,20.09Zm-.27-4.55h.86c.4,0,.66.32.67.82s0,1.3,0,1.94-.22.86-.87.84h-.65Z"/><path class="cls-1" d="M28.92,20.09c.35,0,.67,0,1,0a1.35,1.35,0,0,0,1.43-1.24,15.3,15.3,0,0,0,.06-1.79,10.2,10.2,0,0,0-.06-1.24,1.21,1.21,0,0,0-.59-1,2.18,2.18,0,0,0-.84-.27c-.65,0-1.31,0-2,0V25.13h1Zm0-4.54a7.22,7.22,0,0,1,.93,0,.63.63,0,0,1,.55.67q0,1.11,0,2.22a.7.7,0,0,1-.69.7c-.25,0-.51,0-.79,0Z"/><path class="cls-1" d="M6.72,14.62c-.74-.08-1.49-.07-2.24-.09V25.12h1v-5c.33,0,.65,0,1,0a1.37,1.37,0,0,0,1.38-1,1.8,1.8,0,0,0,.11-.56c0-.88,0-1.76,0-2.64A1.31,1.31,0,0,0,6.72,14.62Zm.22,3.8a.72.72,0,0,1-.76.73H5.45V15.56a6,6,0,0,1,1,0,.63.63,0,0,1,.54.7C7,17,7,17.7,6.94,18.42Z"/><path class="cls-1" d="M20.14,24.15H18.3V20.22h1.22v-1H18.29V15.53h1.8v-1H17.31V25.13h2.83Z"/><path class="cls-1" d="M26.05,10.82a1,1,0,0,0-1-1,1,1,0,0,0-1,1,1,1,0,0,0,1,1A1,1,0,0,0,26.05,10.82Zm-1.59,0a.59.59,0,0,1,.58-.57.55.55,0,0,1,.59.56.59.59,0,0,1-.57.61A.64.64,0,0,1,24.46,10.82Z"/><path class="cls-1" d="M27,10.73l.07,0,1.17,1.19v-2h-.39v1a7.1,7.1,0,0,1-.65-.53c-.19-.17-.32-.43-.62-.51v2H27Z"/><path class="cls-1" d="M9.81,10.66l1.24,1.23v-2h-.41v1.07c-.43-.39-.78-.8-1.19-1.12l0,.06v1.92h.41Z"/><path class="cls-1" d="M17.63,10.66l1.25,1.24V9.85h-.4v1.06l-.22-.18-.8-.79a2.08,2.08,0,0,0-.24-.15v2h.41Z"/><path class="cls-1" d="M23,28.8v2h.42V29.67l1.23,1.24V28.86c-.4,0-.4,0-.4.35v.72A13.28,13.28,0,0,0,23,28.8Z"/><path class="cls-1" d="M16.63,10.26a.63.63,0,0,0-.56-.42h-.89v1.94h.39c0-.2,0-.38,0-.57s.06-.12.09-.18.16.06.2.12a2.86,2.86,0,0,1,.18.35c.17.34.2.35.59.26L16.24,11l.14-.09A.59.59,0,0,0,16.63,10.26Zm-.39.22a.29.29,0,0,1-.2.19,2.3,2.3,0,0,1-.46,0c0-.06,0-.09,0-.12s0-.32.07-.33a.94.94,0,0,1,.47,0A.26.26,0,0,1,16.24,10.48Z"/><path class="cls-1" d="M26.25,29.27a2.12,2.12,0,0,1,.46.1l.24-.24A1,1,0,0,0,25.74,29,1,1,0,0,0,25.25,30a1.05,1.05,0,0,0,1.59.7.17.17,0,0,0,.09-.14c0-.24,0-.48,0-.72h-.62c-.05.31-.05.31.2.38.05.19-.1.2-.22.21a.65.65,0,0,1-.63-.58A.58.58,0,0,1,26.25,29.27Z"/><path class="cls-1" d="M15.27,30.79V28.87c-.4,0-.4,0-.4.32v.45h-.66c-.16,0-.21-.06-.2-.21s0-.39,0-.57c-.41,0-.41,0-.41.32v1.6H14c0-.21,0-.42,0-.62s.07-.15.11-.15c.24,0,.48,0,.75,0v.78Z"/><path class="cls-1" d="M21.19,30.79h1.25v-.35c-.24,0-.46,0-.67,0s-.17-.09-.17-.21,0-.23.17-.22h.52v-.37h-.37c-.35,0-.37,0-.28-.39h.79v-.4c-.36,0-.7,0-1,0-.16,0-.2.06-.2.21q0,.63,0,1.26Z"/><path class="cls-1" d="M28.75,29.25v-.4c-.37,0-.74,0-1.1,0a.2.2,0,0,0-.13.14c0,.6,0,1.19,0,1.81h1.24v-.37h-.81c0-.42,0-.42.34-.42h.33v-.37h-.37c-.35,0-.36,0-.29-.39Z"/><path class="cls-1" d="M14.47,10.22c.13,0,.16-.08.14-.18s-.07-.19-.12-.2H13.38v1.93h1.21v-.35h-.81V11h.68v-.36h-.68v-.41Z"/><path class="cls-1" d="M12.63,29.27c.24.15.36.05.47-.16a1,1,0,0,0-1.46.07,1.05,1.05,0,0,0,.07,1.4,1,1,0,0,0,1.39,0c-.11-.21-.25-.3-.5-.17a.51.51,0,0,1-.64-.21.63.63,0,0,1,0-.74A.52.52,0,0,1,12.63,29.27Z"/><path class="cls-1" d="M29.2,11.57s.09-.05.14-.05h.58s.12,0,.13.06c.08.29.3.21.53.21l-.92-2h-.07l-.92,2C28.89,11.79,29.12,11.87,29.2,11.57Zm.42-.94.24.5H29.4Z"/><path class="cls-1" d="M21.21,11.78l-.92-2h-.07l-.92,2c.23,0,.46.09.53-.22,0,0,.08-.05.12-.05h.63a.12.12,0,0,1,.1.06C20.76,11.87,21,11.79,21.21,11.78ZM20,11.13l.22-.5.24.5Z"/><path class="cls-1" d="M16.22,30.59a.14.14,0,0,1,.11-.06q.32,0,.63,0a.14.14,0,0,1,.11.06c.07.27.27.24.52.2l-.91-2H16.6l-.91,2C15.92,30.81,16.15,30.89,16.22,30.59Zm.43-.95.22.51h-.46Z"/><path class="cls-1" d="M12.43,11.78V10.26c.48-.09.48-.09.43-.41H11.55v.36l.46,0v1.54Z"/><path class="cls-1" d="M22.61,9.84H21.33c-.08.34-.08.34.43.41v1.53h.41V10.25l.44,0Z"/><path class="cls-1" d="M20.74,30.43H20V28.86h-.39v1.93h1.13Z"/><path class="cls-1" d="M32.12,11.42h-.74V9.84H31v1.94h1.13Z"/><path class="cls-1" d="M18,28.86V30.8h1.13v-.37H18.4V28.86Z"/><path class="cls-1" d="M8.7,9.84H8.32v1.94H8.7Z"/><path class="cls-1" d="M23.5,9.85h-.4v1.78s0,.09,0,.15h.39Z"/><path class="cls-1" d="M34.9,2c.22-.21.43-.43.64-.65a.89.89,0,0,0,.14-.24c0-.07-.09-.17-.15-.18a.36.36,0,0,0-.27,0c-.24.22-.47.46-.7.69s-.2.23-.05.38S34.79,2.14,34.9,2Z"/><path class="cls-1" d="M33.4,1.3a.19.19,0,0,0,.19.23c.08,0,.23-.1.23-.16a4.22,4.22,0,0,0,0-.87c0-.06-.16-.16-.23-.15a.37.37,0,0,0-.18.22,1.6,1.6,0,0,0,0,.38C33.4,1.06,33.41,1.18,33.4,1.3Z"/><path class="cls-1" d="M35.15,3.06a1.26,1.26,0,0,0,.26.21,1.22,1.22,0,0,0,.33,0h.33a.21.21,0,0,0,.24-.22.21.21,0,0,0-.21-.25,4.31,4.31,0,0,0-.72,0C35.29,2.83,35.22,3,35.15,3.06Z"/></g></g></svg>